
<svg width="1893" height="215" viewBox="0 0 1893 215" fill="none" xmlns="http://www.w3.org/2000/svg">
<path fill-rule="evenodd" clip-rule="evenodd" d="M527.956 99.7794H605.561C606.003 101.544 606.372 103.676 606.667 106.176C606.962 108.676 607.109 111.176 607.109 113.676C607.109 123.824 605.561 133.382 602.466 142.353C599.371 151.324 594.506 159.338 587.873 166.397C580.798 173.897 572.323 179.706 562.447 183.824C552.572 187.941 541.296 190 528.62 190C517.122 190 506.289 187.941 496.118 183.824C485.948 179.706 477.104 173.971 469.587 166.618C462.069 159.265 456.1 150.552 451.678 140.478C447.256 130.404 445.045 119.412 445.045 107.5C445.045 95.5882 447.256 84.5956 451.678 74.5221C456.1 64.4485 462.069 55.7353 469.587 48.3824C477.104 41.0294 485.948 35.2941 496.118 31.1765C506.289 27.0588 517.122 25 528.62 25C541.443 25 552.903 27.2059 563 31.6176C573.097 36.0294 581.756 42.1323 588.979 49.9265L568.417 70C563.258 64.5588 557.51 60.4044 551.171 57.5368C544.833 54.6691 537.242 53.2353 528.398 53.2353C521.176 53.2353 514.322 54.522 507.836 57.0956C501.351 59.6691 495.676 63.3088 490.812 68.0147C485.948 72.7206 482.079 78.4191 479.204 85.1103C476.33 91.8015 474.893 99.2647 474.893 107.5C474.893 115.735 476.33 123.199 479.204 129.89C482.079 136.581 485.985 142.279 490.923 146.985C495.86 151.691 501.572 155.331 508.058 157.904C514.543 160.478 521.471 161.765 528.841 161.765C537.242 161.765 544.354 160.551 550.176 158.125C555.999 155.699 560.973 152.574 565.101 148.75C568.049 146.103 570.591 142.757 572.728 138.713C574.866 134.669 576.524 130.147 577.703 125.147H527.956V99.7794ZM631.708 29.3421H685.669C698.305 29.3421 709.677 31.2517 719.785 35.0709C729.894 38.8902 738.515 44.2884 745.651 51.2659C752.786 58.2434 758.249 66.5795 762.04 76.2744C765.831 85.9694 767.726 96.6191 767.726 108.224C767.726 119.975 765.831 130.698 762.04 140.393C758.249 150.088 752.786 158.388 745.651 165.292C738.515 172.196 729.894 177.557 719.785 181.376C709.677 185.196 698.305 187.105 685.669 187.105H631.708V29.3421ZM684.447 158.158C693.152 158.158 700.823 156.947 707.463 154.524C714.102 152.101 719.634 148.687 724.061 144.282C728.487 139.877 731.806 134.554 734.019 128.314C736.232 122.073 737.339 115.135 737.339 107.5C737.339 99.8646 736.232 92.9267 734.019 86.6862C731.806 80.4457 728.487 75.123 724.061 70.718C719.634 66.3129 714.102 62.899 707.463 60.4763C700.823 58.0535 693.152 56.8421 684.447 56.8421H662.095V158.158H684.447ZM868.001 99.7794H945.606C946.048 101.544 946.417 103.676 946.712 106.176C947.007 108.676 947.154 111.176 947.154 113.676C947.154 123.824 945.606 133.382 942.511 142.353C939.416 151.324 934.551 159.338 927.918 166.397C920.843 173.897 912.368 179.706 902.492 183.824C892.617 187.941 881.341 190 868.665 190C857.167 190 846.334 187.941 836.163 183.824C825.993 179.706 817.149 173.971 809.632 166.618C802.114 159.265 796.145 150.552 791.723 140.478C787.301 130.404 785.09 119.412 785.09 107.5C785.09 95.5882 787.301 84.5956 791.723 74.5221C796.145 64.4485 802.114 55.7353 809.632 48.3824C817.149 41.0294 825.993 35.2941 836.163 31.1765C846.334 27.0588 857.167 25 868.665 25C881.488 25 892.948 27.2059 903.045 31.6176C913.142 36.0294 921.801 42.1323 929.024 49.9265L908.462 70C903.303 64.5588 897.555 60.4044 891.216 57.5368C884.878 54.6691 877.287 53.2353 868.443 53.2353C861.221 53.2353 854.367 54.522 847.881 57.0956C841.396 59.6691 835.721 63.3088 830.857 68.0147C825.993 72.7206 822.124 78.4191 819.249 85.1103C816.375 91.8015 814.938 99.2647 814.938 107.5C814.938 115.735 816.375 123.199 819.249 129.89C822.124 136.581 826.03 142.279 830.968 146.985C835.905 151.691 841.617 155.331 848.103 157.904C854.588 160.478 861.516 161.765 868.886 161.765C877.287 161.765 884.399 160.551 890.221 158.125C896.044 155.699 901.018 152.574 905.146 148.75C908.094 146.103 910.636 142.757 912.773 138.713C914.911 134.669 916.569 130.147 917.748 125.147H868.001V99.7794ZM1045.05 187.105V57.5456H1000.69V29.3421H1119.35V57.5456H1074.99V187.105H1045.05ZM1171.44 74.2105C1179.9 74.2105 1187.65 75.6523 1194.7 78.536C1201.75 81.4196 1207.84 85.4124 1212.96 90.5142C1218.08 95.6161 1222.08 101.716 1224.98 108.814C1227.87 115.913 1229.32 123.676 1229.32 132.105C1229.32 140.534 1227.87 148.298 1224.98 155.396C1222.08 162.494 1218.08 168.594 1212.96 173.696C1207.84 178.798 1201.75 182.791 1194.7 185.675C1187.65 188.558 1179.9 190 1171.44 190C1162.98 190 1155.23 188.558 1148.18 185.675C1141.13 182.791 1135.04 178.798 1129.92 173.696C1124.8 168.594 1120.79 162.494 1117.9 155.396C1115.01 148.298 1113.56 140.534 1113.56 132.105C1113.56 123.676 1115.01 115.913 1117.9 108.814C1120.79 101.716 1124.8 95.6161 1129.92 90.5142C1135.04 85.4124 1141.13 81.4196 1148.18 78.536C1155.23 75.6523 1162.98 74.2105 1171.44 74.2105ZM1171.44 163.947C1175.18 163.947 1178.8 163.244 1182.32 161.836C1185.83 160.428 1188.94 158.391 1191.63 155.723C1194.32 153.056 1196.45 149.796 1198.02 145.943C1199.59 142.09 1200.38 137.719 1200.38 132.829C1200.38 127.939 1199.59 123.568 1198.02 119.715C1196.45 115.862 1194.32 112.602 1191.63 109.935C1188.94 107.267 1185.83 105.23 1182.32 103.822C1178.8 102.414 1175.18 101.711 1171.44 101.711C1167.55 101.711 1163.89 102.414 1160.45 103.822C1157.01 105.23 1153.94 107.267 1151.25 109.935C1148.56 112.602 1146.42 115.862 1144.85 119.715C1143.28 123.568 1142.5 127.939 1142.5 132.829C1142.5 137.719 1143.28 142.09 1144.85 145.943C1146.42 149.796 1148.56 153.056 1151.25 155.723C1153.94 158.391 1157.01 160.428 1160.45 161.836C1163.89 163.244 1167.55 163.947 1171.44 163.947ZM1320.86 172.38H1319.09C1315.71 177.813 1311.16 182.108 1305.42 185.265C1299.69 188.422 1293.15 190 1285.8 190C1272.13 190 1261.95 185.815 1255.27 177.446C1248.58 169.076 1245.24 157.917 1245.24 143.967V78.5526H1274.12V140.443C1274.12 148.226 1275.84 153.989 1279.3 157.733C1282.75 161.477 1287.79 163.35 1294.4 163.35C1298.37 163.35 1301.86 162.505 1304.87 160.817C1307.88 159.128 1310.46 156.852 1312.59 153.989C1314.72 151.126 1316.34 147.748 1317.44 143.857C1318.54 139.966 1319.09 135.818 1319.09 131.413V78.5526H1347.97V186.476H1320.86V172.38ZM1374.02 187.105V29.3421H1402.96V187.105H1374.02ZM1478.2 74.2105C1486.66 74.2105 1494.42 75.6523 1501.47 78.536C1508.52 81.4196 1514.6 85.4124 1519.72 90.5142C1524.84 95.6161 1528.85 101.716 1531.74 108.814C1534.64 115.913 1536.08 123.676 1536.08 132.105C1536.08 140.534 1534.64 148.298 1531.74 155.396C1528.85 162.494 1524.84 168.594 1519.72 173.696C1514.6 178.798 1508.52 182.791 1501.47 185.675C1494.42 188.558 1486.66 190 1478.2 190C1469.74 190 1461.99 188.558 1454.94 185.675C1447.89 182.791 1441.81 178.798 1436.69 173.696C1431.57 168.594 1427.56 162.494 1424.66 155.396C1421.77 148.298 1420.32 140.534 1420.32 132.105C1420.32 123.676 1421.77 115.913 1424.66 108.814C1427.56 101.716 1431.57 95.6161 1436.69 90.5142C1441.81 85.4124 1447.89 81.4196 1454.94 78.536C1461.99 75.6523 1469.74 74.2105 1478.2 74.2105ZM1478.2 163.947C1481.94 163.947 1485.57 163.244 1489.08 161.836C1492.6 160.428 1495.7 158.391 1498.39 155.723C1501.09 153.056 1503.22 149.796 1504.79 145.943C1506.36 142.09 1507.14 137.719 1507.14 132.829C1507.14 127.939 1506.36 123.568 1504.79 119.715C1503.22 115.862 1501.09 112.602 1498.39 109.935C1495.7 107.267 1492.6 105.23 1489.08 103.822C1485.57 102.414 1481.94 101.711 1478.2 101.711C1474.31 101.711 1470.65 102.414 1467.21 103.822C1463.77 105.23 1460.7 107.267 1458.01 109.935C1455.32 112.602 1453.19 115.862 1451.62 119.715C1450.05 123.568 1449.26 127.939 1449.26 132.829C1449.26 137.719 1450.05 142.09 1451.62 145.943C1453.19 149.796 1455.32 153.056 1458.01 155.723C1460.7 158.391 1463.77 160.428 1467.21 161.836C1470.65 163.244 1474.31 163.947 1478.2 163.947ZM1627.62 172.38H1625.86C1622.48 177.813 1617.92 182.108 1612.19 185.265C1606.45 188.422 1599.91 190 1592.57 190C1578.9 190 1568.72 185.815 1562.03 177.446C1555.34 169.076 1552 157.917 1552 143.967V78.5526H1580.88V140.443C1580.88 148.226 1582.61 153.989 1586.06 157.733C1589.52 161.477 1594.55 163.35 1601.16 163.35C1605.13 163.35 1608.62 162.505 1611.64 160.817C1614.65 159.128 1617.22 156.852 1619.35 153.989C1621.48 151.126 1623.1 147.748 1624.2 143.857C1625.3 139.966 1625.86 135.818 1625.86 131.413V78.5526H1654.74V186.476H1627.62V172.38ZM1722.47 190C1715.34 190 1708.99 189.113 1703.41 187.338C1697.84 185.564 1693.01 183.235 1688.93 180.351C1684.84 177.467 1681.39 174.14 1678.56 170.369C1675.74 166.598 1673.59 162.79 1672.1 158.945L1698.18 147.854C1700.7 153.474 1704.08 157.651 1708.32 160.387C1712.55 163.123 1717.27 164.491 1722.47 164.491C1727.82 164.491 1732.05 163.53 1735.17 161.607C1738.29 159.685 1739.85 157.393 1739.85 154.731C1739.85 151.773 1738.55 149.37 1735.95 147.522C1733.35 145.673 1728.86 144.01 1722.47 142.531L1707.09 139.203C1703.67 138.464 1700.15 137.281 1696.51 135.654C1692.86 134.028 1689.56 131.957 1686.59 129.443C1683.62 126.929 1681.16 123.898 1679.23 120.349C1677.3 116.8 1676.34 112.659 1676.34 107.927C1676.34 102.603 1677.49 97.8712 1679.79 93.7306C1682.09 89.5899 1685.25 86.0778 1689.26 83.1942C1693.27 80.3105 1697.99 78.0924 1703.41 76.5396C1708.84 74.9869 1714.67 74.2105 1720.91 74.2105C1731.31 74.2105 1740.6 76.2438 1748.77 80.3105C1756.94 84.3772 1762.96 90.8469 1766.82 99.7197L1741.64 109.923C1739.56 105.635 1736.51 102.529 1732.5 100.607C1728.49 98.6845 1724.48 97.7233 1720.46 97.7233C1716.3 97.7233 1712.66 98.5736 1709.54 100.274C1706.42 101.975 1704.86 104.156 1704.86 106.818C1704.86 109.332 1706.16 111.328 1708.76 112.807C1711.36 114.286 1714.89 115.617 1719.35 116.8L1736.06 120.792C1747.21 123.454 1755.49 127.706 1760.92 133.547C1766.34 139.388 1769.05 146.302 1769.05 154.287C1769.05 159.019 1767.94 163.53 1765.71 167.818C1763.48 172.107 1760.32 175.914 1756.23 179.242C1752.15 182.569 1747.25 185.194 1741.53 187.116C1735.8 189.039 1729.45 190 1722.47 190ZM1890.26 160.276C1885.21 169.149 1878.41 176.321 1869.87 181.793C1861.33 187.264 1850.89 190 1838.56 190C1830.24 190 1822.56 188.558 1815.5 185.675C1808.44 182.791 1802.32 178.761 1797.12 173.585C1791.92 168.41 1787.87 162.31 1784.97 155.285C1782.07 148.261 1780.63 140.534 1780.63 132.105C1780.63 124.268 1782.04 116.837 1784.86 109.812C1787.68 102.788 1791.62 96.6512 1796.67 91.4015C1801.72 86.1517 1807.7 81.9742 1814.61 78.8687C1821.52 75.7632 1829.13 74.2105 1837.45 74.2105C1846.21 74.2105 1854.01 75.6523 1860.85 78.536C1867.68 81.4196 1873.4 85.4124 1878.01 90.5142C1882.61 95.6161 1886.1 101.642 1888.48 108.592C1890.86 115.543 1892.04 123.085 1892.04 131.218V133.88C1891.9 134.767 1891.82 135.58 1891.82 136.32C1891.67 137.059 1891.6 137.873 1891.6 138.76H1809.37C1809.97 143.196 1811.19 147.004 1813.05 150.183C1814.91 153.363 1817.21 156.025 1819.96 158.169C1822.71 160.313 1825.71 161.866 1828.98 162.827C1832.25 163.788 1835.59 164.269 1839.01 164.269C1845.69 164.269 1851.23 162.753 1855.61 159.722C1859.99 156.69 1863.45 152.882 1865.97 148.298L1890.26 160.276ZM1863.1 119.079C1862.96 117.149 1862.34 114.997 1861.24 112.621C1860.14 110.246 1858.53 108.02 1856.4 105.941C1854.28 103.863 1851.64 102.156 1848.49 100.82C1845.34 99.4838 1841.56 98.8158 1837.17 98.8158C1831.01 98.8158 1825.59 100.597 1820.9 104.16C1816.21 107.723 1812.92 112.696 1811.01 119.079H1863.1Z" fill="white"/>
<path d="M352.31 80.75L242.325 144.25C227.259 152.948 222.096 172.214 230.795 187.28C239.493 202.346 258.759 207.508 273.825 198.81L383.81 135.31C398.876 126.611 404.038 107.346 395.34 92.2798C386.641 77.2136 367.376 72.0515 352.31 80.75Z" fill="#FCBC05"/>
<path d="M384.81 80.25L274.825 16.75C259.759 8.05152 240.493 13.2136 231.795 28.2798C223.096 43.346 228.259 62.6111 243.325 71.3096L353.31 134.81C368.376 143.508 387.641 138.346 396.34 123.28C405.038 108.214 399.876 88.9485 384.81 80.25Z" fill="#0D9D58"/>
<path d="M28.2799 79.25L138.265 15.75C153.331 7.05152 172.596 12.2136 181.295 27.2798C189.993 42.346 184.831 61.6111 169.765 70.3096L59.7799 133.81C44.7137 142.508 25.4486 137.346 16.7501 122.28C8.05161 107.214 13.2137 87.9485 28.2799 79.25Z" fill="#EA4334"/>
<path d="M58.7799 79.75L168.765 143.25C183.831 151.948 188.993 171.214 180.295 186.28C171.596 201.346 152.331 206.508 137.265 197.81L27.2799 134.31C12.2137 125.611 7.05161 106.346 15.7501 91.2798C24.4486 76.2136 43.7137 71.0515 58.7799 79.75Z" fill="#4285F4"/>
</svg>
