<svg fill="none" height="443" viewBox="0 0 2380 443" width="2380" xmlns="http://www.w3.org/2000/svg"><g fill="#fff"><path d="m899.855 27h62.323c14.594 0 27.728 2.2334 39.402 6.7001 11.68 4.4668 21.63 10.8233 29.87 19.0696 8.25 8.0746 14.51 17.7812 18.8 29.1198 4.47 11.3387 6.7 23.7945 6.7 37.3665 0 13.744-2.23 26.285-6.7 37.623-4.29 11.339-10.55 21.046-18.8 29.12-8.24 8.075-18.19 14.345-29.87 18.812-11.674 4.467-24.808 6.7-39.402 6.7h-62.323zm60.778 151.526c10.13 0 19.058-1.374 26.784-4.123 7.726-2.921 14.163-6.958 19.313-12.112s9.02-11.339 11.59-18.554c2.58-7.387 3.86-15.548 3.86-24.481 0-8.934-1.28-17.008-3.86-24.2239-2.57-7.3873-6.44-13.658-11.59-18.8119s-11.587-9.1053-19.313-11.8541c-7.726-2.9205-16.654-4.3808-26.784-4.3808h-26.011v118.5407z"/><path d="m1196.56 181.103c-5.84 10.308-13.74 18.64-23.69 24.997-9.79 6.356-21.81 9.534-36.06 9.534-9.61 0-18.54-1.632-26.78-4.896-8.07-3.436-15.11-8.16-21.12-14.173s-10.73-13.057-14.16-21.131c-3.27-8.247-4.9-17.266-4.9-27.059 0-9.105 1.63-17.695 4.9-25.769 3.26-8.247 7.81-15.376 13.65-21.389 5.83-6.1849 12.7-11.0811 20.6-14.6889 8.07-3.6078 16.91-5.4117 26.52-5.4117 10.13 0 19.15 1.718 27.05 5.154 7.89 3.2642 14.5 7.9027 19.83 13.9156 5.32 5.841 9.35 12.799 12.1 20.874 2.75 8.074 4.12 16.836 4.12 26.285v3.092c-.17 1.031-.26 1.976-.26 2.835-.17.859-.25 1.804-.25 2.834h-95.03c.68 5.154 2.06 9.621 4.12 13.401 2.23 3.607 4.89 6.7 7.98 9.277 3.26 2.405 6.78 4.209 10.56 5.411 3.78 1.031 7.64 1.547 11.59 1.547 7.72 0 14.08-1.718 19.05-5.154 5.16-3.608 9.19-8.075 12.11-13.401zm-30.65-48.962c-.17-2.234-.94-4.725-2.31-7.474-1.21-2.748-3.09-5.325-5.67-7.731-2.4-2.405-5.49-4.38-9.27-5.927-3.61-1.546-7.98-2.319-13.14-2.319-7.21 0-13.56 2.062-19.05 6.185-5.5 4.123-9.36 9.878-11.59 17.266z"/><path d="m1204.26 85.2396h38.37l31.42 80.4014h1.8l31.68-80.4014h38.12l-54.34 126.2714h-33.23z"/><path d="m1365.13 27h116.92v32.9853h-82.16v44.8397h73.91v32.985h-73.91v73.701h-34.76z"/><path d="m1616.31 181.103c-5.84 10.308-13.74 18.64-23.69 24.997-9.79 6.356-21.81 9.534-36.06 9.534-9.61 0-18.54-1.632-26.78-4.896-8.07-3.436-15.11-8.16-21.12-14.173s-10.73-13.057-14.16-21.131c-3.27-8.247-4.9-17.266-4.9-27.059 0-9.105 1.63-17.695 4.9-25.769 3.26-8.247 7.81-15.376 13.65-21.389 5.83-6.1849 12.7-11.0811 20.6-14.6889 8.07-3.6078 16.91-5.4117 26.52-5.4117 10.13 0 19.15 1.718 27.04 5.154 7.9 3.2642 14.51 7.9027 19.83 13.9156 5.33 5.841 9.36 12.799 12.11 20.874 2.75 8.074 4.12 16.836 4.12 26.285v3.092c-.17 1.031-.26 1.976-.26 2.835-.17.859-.26 1.804-.26 2.834h-95.03c.69 5.154 2.06 9.621 4.12 13.401 2.24 3.607 4.9 6.7 7.99 9.277 3.26 2.405 6.78 4.209 10.56 5.411 3.77 1.031 7.64 1.547 11.59 1.547 7.72 0 14.07-1.718 19.05-5.154 5.15-3.608 9.19-8.075 12.11-13.401zm-30.65-48.962c-.17-2.234-.94-4.725-2.32-7.474-1.2-2.748-3.09-5.325-5.66-7.731-2.4-2.405-5.49-4.38-9.27-5.927-3.61-1.546-7.99-2.319-13.14-2.319-7.21 0-13.56 2.062-19.05 6.185-5.5 4.123-9.36 9.878-11.59 17.266z"/><path d="m1691.13 215.634c-8.24 0-15.62-1.03-22.14-3.092-6.36-2.061-11.94-4.724-16.74-7.989-4.64-3.435-8.59-7.301-11.85-11.596-3.26-4.467-5.75-8.933-7.47-13.4l30.13-12.885c2.92 6.528 6.79 11.425 11.59 14.689 4.98 3.092 10.48 4.638 16.48 4.638 6.19 0 11.08-1.116 14.68-3.35 3.61-2.233 5.41-4.896 5.41-7.988 0-3.436-1.54-6.185-4.63-8.247-2.92-2.233-8.07-4.209-15.46-5.927l-17.77-3.865c-3.94-.859-8.06-2.234-12.36-4.123-4.12-1.89-7.89-4.295-11.33-7.216-3.43-2.92-6.26-6.442-8.5-10.565-2.23-4.124-3.34-8.934-3.34-14.432 0-6.184 1.28-11.682 3.86-16.492 2.75-4.8105 6.44-8.8478 11.07-12.112 4.64-3.4359 10.05-6.0129 16.23-7.7309 6.35-1.8898 13.13-2.8347 20.34-2.8347 12.02 0 22.75 2.4052 32.19 7.2156 9.45 4.6385 16.4 12.112 20.86 22.42l-29.1 11.854c-2.4-4.982-5.92-8.59-10.56-10.824-4.63-2.233-9.27-3.35-13.9-3.35-4.81 0-9.02 1.031-12.62 3.093-3.61 1.89-5.41 4.381-5.41 7.473 0 2.921 1.46 5.24 4.38 6.958 3.09 1.718 7.21 3.264 12.36 4.638l19.31 4.639c12.88 3.092 22.41 8.074 28.59 14.946 6.35 6.7 9.53 14.689 9.53 23.966 0 5.498-1.29 10.738-3.86 15.72-2.58 4.982-6.27 9.449-11.08 13.4-4.63 3.78-10.3 6.786-17 9.019-6.52 2.234-13.82 3.35-21.89 3.35z"/><path d="m1778.31 114.102h-22.14v-28.8624h22.14v-38.6546h33.74v38.6546h30.9v28.8624h-30.9v48.962c0 2.921.26 5.67.77 8.247.69 2.405 1.89 4.466 3.61 6.184 2.4 2.749 5.84 4.123 10.3 4.123 2.92 0 5.24-.257 6.95-.773 1.72-.687 3.35-1.546 4.9-2.577l9.53 29.636c-3.95 1.889-8.25 3.264-12.88 4.123-4.47 1.031-9.44 1.546-14.94 1.546-6.35 0-12.1-.945-17.25-2.835-4.98-2.061-9.19-4.81-12.62-8.246-8.07-7.731-12.11-18.726-12.11-32.985z"/><path d="m956.194 269.296v148.91h-21.801v-148.91h-47.393v-20.866h116.59v20.866z"/><path d="m996.943 360.112c0-17.863 5.607-32.643 16.827-44.341 11.37-11.697 25.67-17.546 42.89-17.546s31.44 5.849 42.65 17.546c11.38 11.698 17.06 26.478 17.06 44.341 0 18.021-5.68 32.802-17.06 44.341-11.21 11.698-25.43 17.547-42.65 17.547s-31.52-5.849-42.89-17.547c-11.22-11.698-16.827-26.478-16.827-44.341zm21.797 0c0 12.489 3.64 22.606 10.9 30.351 7.27 7.746 16.28 11.619 27.02 11.619s19.75-3.873 27.01-11.619c7.27-7.745 10.9-17.862 10.9-30.351 0-12.33-3.63-22.368-10.9-30.114-7.42-7.904-16.43-11.855-27.01-11.855-10.59 0-19.59 3.951-27.02 11.855-7.26 7.746-10.9 17.784-10.9 30.114z"/><path d="m1236.92 418.206h-20.86v-16.124h-.94c-3.32 5.691-8.46 10.433-15.41 14.227-6.79 3.794-13.9 5.691-21.32 5.691-14.22 0-25.2-4.031-32.94-12.093-7.59-8.22-11.38-19.839-11.38-34.856v-73.032h21.8v71.609c.48 18.969 10.04 28.454 28.68 28.454 8.69 0 15.95-3.478 21.8-10.433 5.84-7.114 8.77-15.571 8.77-25.372v-64.258h21.8z"/><path d="m1285.26 248.43v169.776h-21.81v-169.776z"/><path d="m1304.03 360.112c0-17.863 5.61-32.643 16.82-44.341 11.38-11.697 25.67-17.546 42.89-17.546s31.44 5.849 42.66 17.546c11.37 11.698 17.06 26.478 17.06 44.341 0 18.021-5.69 32.802-17.06 44.341-11.22 11.698-25.44 17.547-42.66 17.547s-31.51-5.849-42.89-17.547c-11.21-11.698-16.82-26.478-16.82-44.341zm21.8 0c0 12.489 3.63 22.606 10.9 30.351 7.27 7.746 16.27 11.619 27.01 11.619 10.75 0 19.75-3.873 27.02-11.619 7.26-7.745 10.9-17.862 10.9-30.351 0-12.33-3.64-22.368-10.9-30.114-7.43-7.904-16.43-11.855-27.02-11.855-10.58 0-19.59 3.951-27.01 11.855-7.27 7.746-10.9 17.784-10.9 30.114z"/><path d="m1544 418.206h-20.85v-16.124h-.95c-3.32 5.691-8.45 10.433-15.4 14.227-6.8 3.794-13.91 5.691-21.33 5.691-14.22 0-25.2-4.031-32.94-12.093-7.58-8.22-11.37-19.839-11.37-34.856v-73.032h21.8v71.609c.47 18.969 10.03 28.454 28.67 28.454 8.69 0 15.96-3.478 21.8-10.433 5.85-7.114 8.77-15.571 8.77-25.372v-64.258h21.8z"/><path d="m1658.24 385.958c0 10.117-4.42 18.653-13.27 25.609-8.84 6.955-19.98 10.433-33.41 10.433-11.69 0-21.96-3.004-30.8-9.011-8.85-6.165-15.17-14.227-18.96-24.185l19.43-8.3c2.84 6.956 6.95 12.41 12.32 16.362 5.53 3.793 11.53 5.69 18.01 5.69 6.95 0 12.72-1.501 17.3-4.505 4.74-3.003 7.11-6.56 7.11-10.67 0-7.43-5.69-12.884-17.06-16.361l-19.91-4.98c-22.59-5.691-33.88-16.598-33.88-32.722 0-10.591 4.26-19.048 12.79-25.371 8.69-6.482 19.75-9.722 33.18-9.722 10.27 0 19.51 2.45 27.72 7.35 8.38 4.901 14.22 11.461 17.54 19.681l-19.43 8.062c-2.21-4.9-5.85-8.694-10.9-11.382-4.9-2.845-10.43-4.268-16.59-4.268-5.69 0-10.82 1.423-15.4 4.268-4.43 2.846-6.64 6.324-6.64 10.434 0 6.639 6.24 11.381 18.72 14.227l17.54 4.505c23.06 5.691 34.59 17.309 34.59 34.856z"/><path d="m1730.51 422c-17.06 0-31.12-5.849-42.18-17.547s-16.59-26.478-16.59-44.341c0-17.704 5.37-32.406 16.12-44.103 10.74-11.856 24.48-17.784 41.23-17.784 17.22 0 30.88 5.611 40.99 16.835 10.27 11.065 15.41 26.636 15.41 46.712l-.24 2.371h-91.23c.31 11.382 4.1 20.551 11.37 27.506s15.96 10.433 26.07 10.433c13.9 0 24.8-6.955 32.7-20.866l19.43 9.484c-5.21 9.801-12.48 17.468-21.8 23.001-9.16 5.533-19.59 8.299-31.28 8.299zm-34.83-75.878h66.58c-.63-8.062-3.95-14.701-9.95-19.917-5.84-5.375-13.74-8.062-23.7-8.062-8.21 0-15.32 2.529-21.32 7.587-5.85 5.059-9.72 11.856-11.61 20.392z"/><path d="m1957.02 397.34v20.866h-103.32v-21.815l41.94-42.444c14.06-14.385 23.78-25.134 29.15-32.248 5.37-7.271 8.06-14.859 8.06-22.763 0-7.113-2.77-13.199-8.3-18.258-5.53-5.058-12.64-7.588-21.32-7.588-7.43 0-13.83 2.213-19.2 6.64-5.37 4.426-8.85 9.8-10.43 16.124l-19.9-8.062c3.16-9.959 9.24-18.338 18.25-25.135 9-6.955 19.58-10.433 31.75-10.433 14.69 0 26.93 4.505 36.73 13.516 9.79 9.01 14.69 20.076 14.69 33.196 0 15.65-8.61 32.564-25.83 50.743l-47.39 47.661z"/><path d="m1977.76 337.112c0-24.66 6.08-44.973 18.24-60.939 12.17-15.966 27.81-23.949 46.92-23.949 19.12 0 34.76 8.062 46.92 24.186 12.17 15.966 18.25 36.2 18.25 60.702 0 24.344-6.08 44.657-18.25 60.939-12.16 15.966-27.8 23.949-46.92 23.949-19.11 0-34.75-7.983-46.92-23.949-12.16-16.282-18.24-36.595-18.24-60.939zm108.06 0c0-18.653-3.95-33.987-11.85-46.001-7.74-12.014-18.09-18.021-31.05-18.021-12.95 0-23.3 6.007-31.04 18.021-7.9 12.014-11.85 27.348-11.85 46.001s3.95 34.066 11.85 46.238c7.74 11.856 18.09 17.784 31.04 17.784 12.96 0 23.31-6.007 31.05-18.021 7.9-12.172 11.85-27.506 11.85-46.001z"/><path d="m2228.93 397.34v20.866h-103.32v-21.815l41.94-42.444c14.06-14.385 23.78-25.134 29.15-32.248 5.37-7.271 8.06-14.859 8.06-22.763 0-7.113-2.77-13.199-8.3-18.258-5.53-5.058-12.64-7.588-21.33-7.588-7.42 0-13.82 2.213-19.19 6.64-5.37 4.426-8.85 9.8-10.43 16.124l-19.9-8.062c3.16-9.959 9.24-18.338 18.25-25.135 9-6.955 19.58-10.433 31.75-10.433 14.69 0 26.93 4.505 36.73 13.516 9.79 9.01 14.69 20.076 14.69 33.196 0 15.65-8.61 32.564-25.83 50.743l-47.39 47.661z"/><path d="m2249.67 337.112c0-24.66 6.08-44.973 18.24-60.939 12.17-15.966 27.81-23.949 46.92-23.949 19.12 0 34.76 8.062 46.92 24.186 12.17 15.966 18.25 36.2 18.25 60.702 0 24.344-6.08 44.657-18.25 60.939-12.16 15.966-27.8 23.949-46.92 23.949-19.11 0-34.75-7.983-46.92-23.949-12.16-16.282-18.24-36.595-18.24-60.939zm108.06 0c0-18.653-3.95-33.987-11.85-46.001-7.74-12.014-18.09-18.021-31.05-18.021-12.95 0-23.3 6.007-31.04 18.021-7.9 12.014-11.85 27.348-11.85 46.001s3.95 34.066 11.85 46.238c7.74 11.856 18.09 17.784 31.04 17.784 12.96 0 23.31-6.007 31.05-18.021 7.9-12.172 11.85-27.506 11.85-46.001z"/></g><path d="m725.839 167.321-226.595 130.825c-31.04 17.921-41.675 57.611-23.754 88.651s57.612 41.675 88.651 23.754l226.595-130.824c31.04-17.921 41.675-57.612 23.754-88.652-17.92-31.04-57.611-41.675-88.651-23.754z" fill="#fcbc05"/><path d="m792.797 166.291-226.595-130.8247c-31.04-17.9208-70.731-7.2858-88.652 23.7541-17.92 31.0399-7.285 70.7306 23.754 88.6516l226.595 130.824c31.04 17.921 70.731 7.286 88.652-23.754s7.286-70.73-23.754-88.651z" fill="#0d9d58"/><path d="m58.2623 164.231 226.5947-130.8248c31.04-17.9209 70.731-7.2859 88.652 23.754s7.286 70.7308-23.754 88.6518l-226.595 130.824c-31.0402 17.921-70.7308 7.286-88.6517-23.754s-7.2858-70.73 23.754-88.651z" fill="#ea4334"/><path d="m121.1 165.261 226.595 130.825c31.04 17.921 41.675 57.611 23.754 88.651s-57.612 41.675-88.652 23.754l-226.5945-130.825c-31.0399-17.921-41.675-57.611-23.7541-88.651s57.6115-41.675 88.6516-23.754z" fill="#4285f4"/></svg>