<svg fill="none" height="349" viewBox="0 0 2657 349" width="2657" xmlns="http://www.w3.org/2000/svg"><g fill="#757575"><path d="m445 85h58.789c13.766 0 26.155 2.1075 37.168 6.3224s20.406 10.2136 28.18 17.9946c7.774 7.619 13.685 16.779 17.734 27.478 4.21 10.7 6.316 22.453 6.316 35.26 0 12.969-2.106 24.803-6.316 35.502-4.049 10.7-9.96 19.859-17.734 27.479-7.774 7.619-17.167 13.536-28.18 17.751s-23.402 6.322-37.168 6.322h-58.789zm57.331 142.984c9.555 0 17.977-1.297 25.265-3.891 7.288-2.756 13.361-6.566 18.22-11.429 4.858-4.863 8.502-10.7 10.931-17.508 2.43-6.971 3.644-14.671 3.644-23.101s-1.214-16.05-3.644-22.858c-2.429-6.971-6.073-12.888-10.931-17.752-4.859-4.863-10.932-8.592-18.22-11.185-7.288-2.756-15.71-4.134-25.265-4.134h-24.536v111.858z"/><path d="m724.879 230.415c-5.506 9.727-12.956 17.59-22.349 23.588-9.232 5.998-20.568 8.997-34.011 8.997-9.069 0-17.49-1.54-25.264-4.62-7.612-3.242-14.252-7.701-19.92-13.375-5.669-5.673-10.122-12.32-13.361-19.939-3.078-7.782-4.616-16.293-4.616-25.533 0-8.592 1.538-16.698 4.616-24.317 3.077-7.782 7.368-14.509 12.875-20.183 5.506-5.836 11.984-10.456 19.434-13.861 7.612-3.404 15.952-5.106 25.022-5.106 9.555 0 18.058 1.621 25.507 4.863 7.45 3.08 13.685 7.457 18.706 13.131 5.02 5.512 8.826 12.078 11.418 19.697 2.591 7.619 3.886 15.887 3.886 24.803v2.918c-.162.973-.242 1.864-.242 2.675-.162.811-.243 1.702-.243 2.675h-89.641c.648 4.863 1.943 9.078 3.887 12.645 2.105 3.404 4.615 6.322 7.53 8.754 3.078 2.269 6.398 3.972 9.961 5.106 3.562.973 7.206 1.459 10.931 1.459 7.288 0 13.28-1.621 17.977-4.863 4.859-3.404 8.665-7.619 11.418-12.645zm-28.909-46.202c-.162-2.107-.89-4.458-2.186-7.052-1.134-2.594-2.915-5.025-5.344-7.295-2.268-2.269-5.183-4.134-8.746-5.593-3.401-1.459-7.531-2.188-12.389-2.188-6.802 0-12.794 1.945-17.977 5.836-5.182 3.89-8.826 9.321-10.932 16.292z"/><path d="m732.142 139.956h36.197l29.637 75.869h1.701l29.88-75.869h35.953l-51.258 119.153h-31.338z"/><path d="m883.886 85h110.289v31.126h-77.494v42.311h69.721v31.126h-69.721v69.546h-32.795z"/><path d="m1120.82 230.415c-5.5 9.727-12.95 17.59-22.34 23.588-9.24 5.998-20.57 8.997-34.01 8.997-9.07 0-17.5-1.54-25.27-4.62-7.61-3.242-14.25-7.701-19.92-13.375-5.67-5.673-10.12-12.32-13.36-19.939-3.08-7.782-4.62-16.293-4.62-25.533 0-8.592 1.54-16.698 4.62-24.317 3.08-7.782 7.37-14.509 12.87-20.183 5.51-5.836 11.99-10.456 19.44-13.861 7.61-3.404 15.95-5.106 25.02-5.106 9.56 0 18.06 1.621 25.51 4.863 7.45 3.08 13.68 7.457 18.7 13.131 5.02 5.512 8.83 12.078 11.42 19.697s3.89 15.887 3.89 24.803v2.918c-.16.973-.24 1.864-.24 2.675-.17.811-.25 1.702-.25 2.675h-89.64c.65 4.863 1.95 9.078 3.89 12.645 2.1 3.404 4.61 6.322 7.53 8.754 3.08 2.269 6.4 3.972 9.96 5.106 3.56.973 7.21 1.459 10.93 1.459 7.29 0 13.28-1.621 17.98-4.863 4.86-3.404 8.66-7.619 11.42-12.645zm-28.9-46.202c-.17-2.107-.89-4.458-2.19-7.052-1.13-2.594-2.92-5.025-5.34-7.295-2.27-2.269-5.19-4.134-8.75-5.593-3.4-1.459-7.53-2.188-12.39-2.188-6.8 0-12.79 1.945-17.98 5.836-5.18 3.89-8.82 9.321-10.93 16.292z"/><path d="m1191.41 263c-7.78 0-14.74-.973-20.89-2.918-6-1.945-11.26-4.458-15.8-7.538-4.37-3.243-8.09-6.89-11.17-10.943-3.08-4.215-5.43-8.43-7.04-12.645l28.42-12.158c2.75 6.16 6.4 10.78 10.93 13.86 4.7 2.919 9.88 4.378 15.55 4.378 5.83 0 10.44-1.054 13.84-3.162 3.41-2.107 5.11-4.62 5.11-7.538 0-3.242-1.46-5.836-4.38-7.781-2.75-2.108-7.61-3.972-14.57-5.593l-16.76-3.648c-3.73-.81-7.62-2.107-11.67-3.891-3.88-1.783-7.45-4.052-10.68-6.808-3.24-2.756-5.92-6.079-8.02-9.97-2.11-3.891-3.16-8.43-3.16-13.618 0-5.836 1.22-11.023 3.64-15.563 2.6-4.539 6.08-8.348 10.45-11.428 4.37-3.243 9.48-5.674 15.31-7.296 5.99-1.783 12.38-2.674 19.19-2.674 11.33 0 21.46 2.269 30.36 6.808 8.91 4.377 15.47 11.429 19.68 21.156l-27.45 11.186c-2.27-4.701-5.59-8.106-9.96-10.213-4.37-2.108-8.75-3.161-13.12-3.161-4.53 0-8.5.972-11.9 2.918-3.4 1.783-5.1 4.133-5.1 7.051 0 2.756 1.37 4.945 4.13 6.566 2.91 1.621 6.8 3.08 11.66 4.377l18.22 4.377c12.14 2.918 21.13 7.619 26.96 14.104 5.99 6.322 8.99 13.861 8.99 22.615 0 5.187-1.22 10.132-3.64 14.833-2.43 4.701-5.92 8.916-10.45 12.645-4.37 3.566-9.72 6.403-16.03 8.511-6.16 2.107-13.04 3.161-20.65 3.161z"/><path d="m1273.64 167.191h-20.89v-27.235h20.89v-36.475h31.83v36.475h29.15v27.235h-29.15v46.202c0 2.756.24 5.35.73 7.782.64 2.269 1.78 4.215 3.4 5.836 2.26 2.594 5.5 3.891 9.71 3.891 2.76 0 4.94-.244 6.56-.73 1.62-.648 3.16-1.459 4.62-2.432l8.99 27.965c-3.73 1.783-7.78 3.08-12.15 3.891-4.21.972-8.91 1.459-14.09 1.459-5.99 0-11.42-.892-16.28-2.675-4.69-1.946-8.66-4.539-11.9-7.782-7.61-7.295-11.42-17.67-11.42-31.125z"/><path d="m1464.84 106.399v152.71h-22.35v-152.71h-48.58v-21.399h119.52v21.399z"/><path d="m1506.62 199.533c0-18.319 5.74-33.477 17.24-45.473 11.66-11.996 26.32-17.994 43.97-17.994 17.66 0 32.23 5.998 43.73 17.994 11.66 11.996 17.49 27.154 17.49 45.473 0 18.481-5.83 33.638-17.49 45.472-11.5 11.997-26.07 17.995-43.73 17.995-17.65 0-32.31-5.998-43.97-17.995-11.5-11.996-17.24-27.153-17.24-45.472zm22.34 0c0 12.807 3.73 23.182 11.18 31.125 7.45 7.944 16.68 11.916 27.69 11.916 11.02 0 20.25-3.972 27.7-11.916 7.45-7.943 11.17-18.318 11.17-31.125 0-12.645-3.72-22.939-11.17-30.883-7.61-8.105-16.85-12.158-27.7-12.158s-20.08 4.053-27.69 12.158c-7.45 7.944-11.18 18.238-11.18 30.883z"/><path d="m1752.63 259.109h-21.38v-16.535h-.97c-3.4 5.836-8.67 10.699-15.79 14.59-6.97 3.891-14.26 5.836-21.87 5.836-14.57 0-25.83-4.134-33.76-12.402-7.78-8.43-11.66-20.345-11.66-35.746v-74.896h22.34v73.437c.49 19.454 10.29 29.181 29.4 29.181 8.91 0 16.36-3.567 22.35-10.7 5.99-7.295 8.99-15.968 8.99-26.019v-65.899h22.35z"/><path d="m1802.18 85v174.109h-22.35v-174.109z"/><path d="m1821.43 199.533c0-18.319 5.75-33.477 17.24-45.473 11.67-11.996 26.32-17.994 43.97-17.994 17.66 0 32.23 5.998 43.73 17.994 11.66 11.996 17.49 27.154 17.49 45.473 0 18.481-5.83 33.638-17.49 45.472-11.5 11.997-26.07 17.995-43.73 17.995-17.65 0-32.3-5.998-43.97-17.995-11.49-11.996-17.24-27.153-17.24-45.472zm22.35 0c0 12.807 3.72 23.182 11.17 31.125 7.45 7.944 16.68 11.916 27.69 11.916 11.02 0 20.25-3.972 27.7-11.916 7.45-7.943 11.17-18.318 11.17-31.125 0-12.645-3.72-22.939-11.17-30.883-7.61-8.105-16.84-12.158-27.7-12.158-10.85 0-20.08 4.053-27.69 12.158-7.45 7.944-11.17 18.238-11.17 30.883z"/><path d="m2067.44 259.109h-21.38v-16.535h-.97c-3.4 5.836-8.67 10.699-15.79 14.59-6.97 3.891-14.25 5.836-21.87 5.836-14.57 0-25.83-4.134-33.76-12.402-7.78-8.43-11.66-20.345-11.66-35.746v-74.896h22.35v73.437c.48 19.454 10.28 29.181 29.39 29.181 8.91 0 16.36-3.567 22.35-10.7 5.99-7.295 8.99-15.968 8.99-26.019v-65.899h22.35z"/><path d="m2184.56 226.038c0 10.375-4.54 19.13-13.61 26.263s-20.48 10.699-34.25 10.699c-11.99 0-22.51-3.08-31.58-9.24-9.07-6.323-15.55-14.591-19.44-24.804l19.92-8.511c2.92 7.133 7.13 12.726 12.64 16.779 5.67 3.891 11.82 5.836 18.46 5.836 7.13 0 13.04-1.54 17.73-4.62 4.86-3.08 7.29-6.728 7.29-10.943 0-7.619-5.83-13.212-17.49-16.778l-20.41-5.107c-23.16-5.836-34.73-17.022-34.73-33.557 0-10.862 4.37-19.535 13.11-26.019 8.91-6.647 20.25-9.97 34.01-9.97 10.53 0 20 2.512 28.43 7.538 8.58 5.025 14.57 11.753 17.97 20.183l-19.92 8.268c-2.26-5.026-5.99-8.917-11.17-11.672-5.02-2.919-10.69-4.378-17.01-4.378-5.83 0-11.09 1.459-15.79 4.378-4.53 2.918-6.8 6.484-6.8 10.699 0 6.809 6.4 11.672 19.19 14.59l17.98 4.62c23.64 5.836 35.47 17.752 35.47 35.746z"/><path d="m2258.64 263c-17.49 0-31.9-5.998-43.24-17.995-11.34-11.996-17.01-27.153-17.01-45.472 0-18.157 5.51-33.233 16.52-45.23 11.02-12.158 25.11-18.237 42.27-18.237 17.66 0 31.66 5.755 42.03 17.265 10.53 11.348 15.79 27.316 15.79 47.904l-.24 2.432h-93.53c.32 11.672 4.21 21.074 11.66 28.207s16.36 10.7 26.72 10.7c14.25 0 25.43-7.133 33.53-21.399l19.92 9.727c-5.35 10.051-12.8 17.913-22.35 23.587-9.4 5.674-20.09 8.511-32.07 8.511zm-35.71-77.814h68.26c-.64-8.268-4.05-15.077-10.2-20.426-5.99-5.512-14.09-8.268-24.29-8.268-8.42 0-15.71 2.594-21.87 7.781-5.99 5.188-9.96 12.159-11.9 20.913z"/></g><path d="m352.31 147.75-109.985 63.5c-15.066 8.698-20.229 27.964-11.53 43.03 8.698 15.066 27.964 20.228 43.03 11.53l109.985-63.5c15.066-8.699 20.228-27.964 11.53-43.03-8.699-15.066-27.964-20.228-43.03-11.53z" fill="#fcbc05"/><path d="m384.81 147.25-109.985-63.5c-15.066-8.6985-34.332-3.5364-43.03 11.5298-8.699 15.0662-3.536 34.3312 11.53 43.0302l109.985 63.5c15.066 8.698 34.331 3.536 43.03-11.53 8.698-15.066 3.536-34.332-11.53-43.03z" fill="#0d9d58"/><path d="m28.2799 146.25 109.9851-63.5c15.066-8.6985 34.331-3.5364 43.03 11.5298 8.698 15.0662 3.536 34.3312-11.53 43.0302l-109.9851 63.5c-15.0662 8.698-34.3313 3.536-43.0298-11.53-8.69849-15.066-3.5364-34.332 11.5298-43.03z" fill="#ea4334"/><path d="m58.7799 146.75 109.9851 63.5c15.066 8.698 20.228 27.964 11.53 43.03-8.699 15.066-27.964 20.228-43.03 11.53l-109.9851-63.5c-15.0662-8.699-20.22829-27.964-11.5298-43.03 8.6985-15.066 27.9636-20.228 43.0298-11.53z" fill="#4285f4"/></svg>