<svg width="2380" height="443" viewBox="0 0 2380 443" fill="none" xmlns="http://www.w3.org/2000/svg">
<path d="M899.855 27H962.178C976.772 27 989.906 29.2334 1001.58 33.7002C1013.26 38.1669 1023.21 44.5234 1031.45 52.7698C1039.7 60.8443 1045.96 70.5509 1050.25 81.8896C1054.72 93.2283 1056.95 105.684 1056.95 119.256C1056.95 133 1054.72 145.541 1050.25 156.88C1045.96 168.218 1039.7 177.925 1031.45 185.999C1023.21 194.074 1013.26 200.344 1001.58 204.811C989.906 209.278 976.772 211.511 962.178 211.511H899.855V27ZM960.633 178.526C970.763 178.526 979.691 177.152 987.417 174.403C995.143 171.482 1001.58 167.445 1006.73 162.291C1011.88 157.137 1015.75 150.952 1018.32 143.737C1020.9 136.35 1022.18 128.189 1022.18 119.256C1022.18 110.322 1020.9 102.248 1018.32 95.0321C1015.75 87.6448 1011.88 81.3742 1006.73 76.2202C1001.58 71.0663 995.143 67.1149 987.417 64.3661C979.691 61.4456 970.763 59.9853 960.633 59.9853H934.622V178.526H960.633Z" fill="#757575"/>
<path d="M1196.56 181.103C1190.72 191.411 1182.82 199.743 1172.87 206.1C1163.08 212.456 1151.06 215.635 1136.81 215.635C1127.2 215.635 1118.27 214.002 1110.03 210.738C1101.96 207.302 1094.92 202.578 1088.91 196.565C1082.9 190.552 1078.18 183.508 1074.75 175.434C1071.48 167.187 1069.85 158.168 1069.85 148.376C1069.85 139.27 1071.48 130.68 1074.75 122.606C1078.01 114.359 1082.56 107.23 1088.4 101.217C1094.23 95.0321 1101.1 90.1359 1109 86.5281C1117.07 82.9204 1125.91 81.1165 1135.52 81.1165C1145.65 81.1165 1154.67 82.8345 1162.57 86.2704C1170.46 89.5346 1177.07 94.1731 1182.4 100.186C1187.72 106.027 1191.75 112.985 1194.5 121.06C1197.25 129.134 1198.62 137.896 1198.62 147.345C1198.62 148.547 1198.62 149.578 1198.62 150.437C1198.45 151.468 1198.36 152.413 1198.36 153.272C1198.19 154.131 1198.11 155.076 1198.11 156.106H1103.08C1103.76 161.26 1105.14 165.727 1107.2 169.507C1109.43 173.114 1112.09 176.207 1115.18 178.784C1118.44 181.189 1121.96 182.993 1125.74 184.195C1129.52 185.226 1133.38 185.742 1137.33 185.742C1145.05 185.742 1151.41 184.024 1156.38 180.588C1161.54 176.98 1165.57 172.513 1168.49 167.187L1196.56 181.103ZM1165.91 132.141C1165.74 129.907 1164.97 127.416 1163.6 124.667C1162.39 121.919 1160.51 119.342 1157.93 116.936C1155.53 114.531 1152.44 112.556 1148.66 111.009C1145.05 109.463 1140.68 108.69 1135.52 108.69C1128.31 108.69 1121.96 110.752 1116.47 114.875C1110.97 118.998 1107.11 124.753 1104.88 132.141H1165.91Z" fill="#757575"/>
<path d="M1204.26 85.2396H1242.63L1274.05 165.641H1275.85L1307.53 85.2396H1345.65L1291.31 211.511H1258.08L1204.26 85.2396Z" fill="#757575"/>
<path d="M1365.13 27H1482.05V59.9853H1399.89V104.825H1473.8V137.81H1399.89V211.511H1365.13V27Z" fill="#757575"/>
<path d="M1616.31 181.103C1610.47 191.411 1602.57 199.743 1592.62 206.1C1582.83 212.456 1570.81 215.635 1556.56 215.635C1546.95 215.635 1538.02 214.002 1529.78 210.738C1521.71 207.302 1514.67 202.578 1508.66 196.565C1502.65 190.552 1497.93 183.508 1494.5 175.434C1491.23 167.187 1489.6 158.168 1489.6 148.376C1489.6 139.27 1491.23 130.68 1494.5 122.606C1497.76 114.359 1502.31 107.23 1508.15 101.217C1513.98 95.0321 1520.85 90.1359 1528.75 86.5281C1536.82 82.9204 1545.66 81.1165 1555.27 81.1165C1565.4 81.1165 1574.42 82.8345 1582.31 86.2704C1590.21 89.5346 1596.82 94.1731 1602.14 100.186C1607.47 106.027 1611.5 112.985 1614.25 121.06C1617 129.134 1618.37 137.896 1618.37 147.345C1618.37 148.547 1618.37 149.578 1618.37 150.437C1618.2 151.468 1618.11 152.413 1618.11 153.272C1617.94 154.131 1617.85 155.076 1617.85 156.106H1522.82C1523.51 161.26 1524.88 165.727 1526.94 169.507C1529.18 173.114 1531.84 176.207 1534.93 178.784C1538.19 181.189 1541.71 182.993 1545.49 184.195C1549.26 185.226 1553.13 185.742 1557.08 185.742C1564.8 185.742 1571.15 184.024 1576.13 180.588C1581.28 176.98 1585.32 172.513 1588.24 167.187L1616.31 181.103ZM1585.66 132.141C1585.49 129.907 1584.72 127.416 1583.34 124.667C1582.14 121.919 1580.25 119.342 1577.68 116.936C1575.28 114.531 1572.19 112.556 1568.41 111.009C1564.8 109.463 1560.42 108.69 1555.27 108.69C1548.06 108.69 1541.71 110.752 1536.22 114.875C1530.72 118.998 1526.86 124.753 1524.63 132.141H1585.66Z" fill="#757575"/>
<path d="M1691.13 215.635C1682.89 215.635 1675.51 214.604 1668.99 212.542C1662.63 210.481 1657.05 207.818 1652.25 204.554C1647.61 201.118 1643.66 197.252 1640.4 192.957C1637.14 188.49 1634.65 184.024 1632.93 179.557L1663.06 166.672C1665.98 173.2 1669.85 178.097 1674.65 181.361C1679.63 184.453 1685.13 185.999 1691.13 185.999C1697.32 185.999 1702.21 184.883 1705.81 182.649C1709.42 180.416 1711.22 177.753 1711.22 174.661C1711.22 171.225 1709.68 168.476 1706.59 166.414C1703.67 164.181 1698.52 162.205 1691.13 160.487L1673.36 156.622C1669.42 155.763 1665.3 154.388 1661 152.499C1656.88 150.609 1653.11 148.204 1649.67 145.283C1646.24 142.363 1643.41 138.841 1641.17 134.718C1638.94 130.594 1637.83 125.784 1637.83 120.286C1637.83 114.102 1639.11 108.604 1641.69 103.794C1644.44 98.9835 1648.13 94.9462 1652.76 91.6821C1657.4 88.2461 1662.81 85.6691 1668.99 83.9511C1675.34 82.0614 1682.12 81.1165 1689.33 81.1165C1701.35 81.1165 1712.08 83.5216 1721.52 88.332C1730.97 92.9706 1737.92 100.444 1742.38 110.752L1713.28 122.606C1710.88 117.624 1707.36 114.016 1702.72 111.782C1698.09 109.549 1693.45 108.432 1688.82 108.432C1684.01 108.432 1679.8 109.463 1676.2 111.525C1672.59 113.415 1670.79 115.906 1670.79 118.998C1670.79 121.919 1672.25 124.238 1675.17 125.956C1678.26 127.674 1682.38 129.22 1687.53 130.594L1706.84 135.233C1719.72 138.325 1729.25 143.307 1735.43 150.179C1741.78 156.88 1744.96 164.868 1744.96 174.145C1744.96 179.643 1743.67 184.883 1741.1 189.865C1738.52 194.847 1734.83 199.314 1730.02 203.265C1725.39 207.045 1719.72 210.051 1713.02 212.284C1706.5 214.518 1699.2 215.635 1691.13 215.635Z" fill="#757575"/>
<path d="M1778.31 114.102H1756.17V85.2396H1778.31V46.585H1812.05V85.2396H1842.95V114.102H1812.05V163.064C1812.05 165.985 1812.31 168.734 1812.82 171.311C1813.51 173.716 1814.71 175.777 1816.43 177.495C1818.83 180.244 1822.27 181.618 1826.73 181.618C1829.65 181.618 1831.97 181.361 1833.68 180.845C1835.4 180.158 1837.03 179.299 1838.58 178.268L1848.11 207.904C1844.16 209.793 1839.86 211.168 1835.23 212.027C1830.76 213.058 1825.79 213.573 1820.29 213.573C1813.94 213.573 1808.19 212.628 1803.04 210.738C1798.06 208.677 1793.85 205.928 1790.42 202.492C1782.35 194.761 1778.31 183.766 1778.31 169.507V114.102Z" fill="#757575"/>
<path d="M956.194 269.296V418.206H934.393V269.296H887V248.43H1003.59V269.296H956.194Z" fill="#757575"/>
<path d="M996.943 360.112C996.943 342.25 1002.55 327.469 1013.77 315.771C1025.14 304.074 1039.44 298.225 1056.66 298.225C1073.88 298.225 1088.1 304.074 1099.31 315.771C1110.69 327.469 1116.37 342.25 1116.37 360.112C1116.37 378.133 1110.69 392.914 1099.31 404.453C1088.1 416.151 1073.88 422 1056.66 422C1039.44 422 1025.14 416.151 1013.77 404.453C1002.55 392.756 996.943 377.975 996.943 360.112ZM1018.74 360.112C1018.74 372.601 1022.38 382.718 1029.64 390.463C1036.91 398.209 1045.92 402.082 1056.66 402.082C1067.4 402.082 1076.41 398.209 1083.67 390.463C1090.94 382.718 1094.57 372.601 1094.57 360.112C1094.57 347.782 1090.94 337.744 1083.67 329.998C1076.25 322.095 1067.24 318.143 1056.66 318.143C1046.07 318.143 1037.07 322.095 1029.64 329.998C1022.38 337.744 1018.74 347.782 1018.74 360.112Z" fill="#757575"/>
<path d="M1236.92 418.206H1216.06V402.082H1215.12C1211.8 407.773 1206.66 412.515 1199.71 416.309C1192.92 420.103 1185.81 422 1178.39 422C1164.17 422 1153.19 417.969 1145.45 409.907C1137.86 401.687 1134.07 390.068 1134.07 375.051V302.019H1155.87V373.628C1156.35 392.597 1165.91 402.082 1184.55 402.082C1193.24 402.082 1200.5 398.604 1206.35 391.649C1212.19 384.535 1215.12 376.078 1215.12 366.277V302.019H1236.92V418.206Z" fill="#757575"/>
<path d="M1285.26 248.43V418.206H1263.45V248.43H1285.26Z" fill="#757575"/>
<path d="M1304.03 360.112C1304.03 342.25 1309.64 327.469 1320.85 315.771C1332.23 304.074 1346.52 298.225 1363.74 298.225C1380.96 298.225 1395.18 304.074 1406.4 315.771C1417.77 327.469 1423.46 342.25 1423.46 360.112C1423.46 378.133 1417.77 392.914 1406.4 404.453C1395.18 416.151 1380.96 422 1363.74 422C1346.52 422 1332.23 416.151 1320.85 404.453C1309.64 392.756 1304.03 377.975 1304.03 360.112ZM1325.83 360.112C1325.83 372.601 1329.46 382.718 1336.73 390.463C1344 398.209 1353 402.082 1363.74 402.082C1374.49 402.082 1383.49 398.209 1390.76 390.463C1398.02 382.718 1401.66 372.601 1401.66 360.112C1401.66 347.782 1398.02 337.744 1390.76 329.998C1383.33 322.095 1374.33 318.143 1363.74 318.143C1353.16 318.143 1344.15 322.095 1336.73 329.998C1329.46 337.744 1325.83 347.782 1325.83 360.112Z" fill="#757575"/>
<path d="M1544 418.206H1523.15V402.082H1522.2C1518.88 407.773 1513.75 412.515 1506.8 416.309C1500 420.103 1492.89 422 1485.47 422C1471.25 422 1460.27 417.969 1452.53 409.907C1444.95 401.687 1441.16 390.068 1441.16 375.051V302.019H1462.96V373.628C1463.43 392.597 1472.99 402.082 1491.63 402.082C1500.32 402.082 1507.59 398.604 1513.43 391.649C1519.28 384.535 1522.2 376.078 1522.2 366.277V302.019H1544V418.206Z" fill="#757575"/>
<path d="M1658.24 385.958C1658.24 396.075 1653.82 404.611 1644.97 411.567C1636.13 418.522 1624.99 422 1611.56 422C1599.87 422 1589.6 418.996 1580.76 412.99C1571.91 406.824 1565.59 398.762 1561.8 388.804L1581.23 380.504C1584.07 387.46 1588.18 392.914 1593.55 396.866C1599.08 400.659 1605.08 402.556 1611.56 402.556C1618.51 402.556 1624.28 401.055 1628.86 398.051C1633.6 395.048 1635.97 391.491 1635.97 387.381C1635.97 379.951 1630.28 374.497 1618.91 371.02L1599 366.04C1576.41 360.349 1565.12 349.442 1565.12 333.318C1565.12 322.727 1569.38 314.27 1577.91 307.947C1586.6 301.465 1597.66 298.225 1611.09 298.225C1621.36 298.225 1630.6 300.675 1638.81 305.575C1647.19 310.476 1653.03 317.036 1656.35 325.256L1636.92 333.318C1634.71 328.418 1631.07 324.624 1626.02 321.936C1621.12 319.091 1615.59 317.668 1609.43 317.668C1603.74 317.668 1598.61 319.091 1594.03 321.936C1589.6 324.782 1587.39 328.26 1587.39 332.37C1587.39 339.009 1593.63 343.751 1606.11 346.597L1623.65 351.102C1646.71 356.793 1658.24 368.411 1658.24 385.958Z" fill="#757575"/>
<path d="M1730.51 422C1713.45 422 1699.39 416.151 1688.33 404.453C1677.27 392.756 1671.74 377.975 1671.74 360.112C1671.74 342.408 1677.11 327.706 1687.86 316.009C1698.6 304.153 1712.34 298.225 1729.09 298.225C1746.31 298.225 1759.97 303.836 1770.08 315.06C1780.35 326.126 1785.49 341.696 1785.49 361.772L1785.25 364.143H1694.02C1694.33 375.525 1698.12 384.694 1705.39 391.649C1712.66 398.604 1721.35 402.082 1731.46 402.082C1745.36 402.082 1756.26 395.127 1764.16 381.216L1783.59 390.701C1778.38 400.501 1771.11 408.168 1761.79 413.701C1752.63 419.234 1742.2 422 1730.51 422ZM1695.68 346.122H1762.26C1761.63 338.06 1758.31 331.421 1752.31 326.205C1746.47 320.83 1738.57 318.143 1728.61 318.143C1720.4 318.143 1713.29 320.672 1707.29 325.73C1701.44 330.789 1697.57 337.586 1695.68 346.122Z" fill="#757575"/>
<path d="M1957.02 397.34V418.206H1853.7V396.391L1895.64 353.947C1909.7 339.562 1919.42 328.813 1924.79 321.699C1930.16 314.428 1932.85 306.84 1932.85 298.936C1932.85 291.823 1930.08 285.737 1924.55 280.678C1919.02 275.62 1911.91 273.09 1903.23 273.09C1895.8 273.09 1889.4 275.303 1884.03 279.73C1878.66 284.156 1875.18 289.53 1873.6 295.854L1853.7 287.792C1856.86 277.833 1862.94 269.454 1871.95 262.657C1880.95 255.702 1891.53 252.224 1903.7 252.224C1918.39 252.224 1930.63 256.729 1940.43 265.74C1950.22 274.75 1955.12 285.816 1955.12 298.936C1955.12 314.586 1946.51 331.5 1929.29 349.679L1881.9 397.34H1957.02Z" fill="#757575"/>
<path d="M1977.76 337.112C1977.76 312.452 1983.84 292.139 1996 276.173C2008.17 260.207 2023.81 252.224 2042.92 252.224C2062.04 252.224 2077.68 260.286 2089.84 276.41C2102.01 292.376 2108.09 312.61 2108.09 337.112C2108.09 361.456 2102.01 381.769 2089.84 398.051C2077.68 414.017 2062.04 422 2042.92 422C2023.81 422 2008.17 414.017 1996 398.051C1983.84 381.769 1977.76 361.456 1977.76 337.112ZM2085.82 337.112C2085.82 318.459 2081.87 303.125 2073.97 291.111C2066.23 279.097 2055.88 273.09 2042.92 273.09C2029.97 273.09 2019.62 279.097 2011.88 291.111C2003.98 303.125 2000.03 318.459 2000.03 337.112C2000.03 355.765 2003.98 371.178 2011.88 383.35C2019.62 395.206 2029.97 401.134 2042.92 401.134C2055.88 401.134 2066.23 395.127 2073.97 383.113C2081.87 370.941 2085.82 355.607 2085.82 337.112Z" fill="#757575"/>
<path d="M2228.93 397.34V418.206H2125.61V396.391L2167.55 353.947C2181.61 339.562 2191.33 328.813 2196.7 321.699C2202.07 314.428 2204.76 306.84 2204.76 298.936C2204.76 291.823 2201.99 285.737 2196.46 280.678C2190.93 275.62 2183.82 273.09 2175.13 273.09C2167.71 273.09 2161.31 275.303 2155.94 279.73C2150.57 284.156 2147.09 289.53 2145.51 295.854L2125.61 287.792C2128.77 277.833 2134.85 269.454 2143.86 262.657C2152.86 255.702 2163.44 252.224 2175.61 252.224C2190.3 252.224 2202.54 256.729 2212.34 265.74C2222.13 274.75 2227.03 285.816 2227.03 298.936C2227.03 314.586 2218.42 331.5 2201.2 349.679L2153.81 397.34H2228.93Z" fill="#757575"/>
<path d="M2249.67 337.112C2249.67 312.452 2255.75 292.139 2267.91 276.173C2280.08 260.207 2295.72 252.224 2314.83 252.224C2333.95 252.224 2349.59 260.286 2361.75 276.41C2373.92 292.376 2380 312.61 2380 337.112C2380 361.456 2373.92 381.769 2361.75 398.051C2349.59 414.017 2333.95 422 2314.83 422C2295.72 422 2280.08 414.017 2267.91 398.051C2255.75 381.769 2249.67 361.456 2249.67 337.112ZM2357.73 337.112C2357.73 318.459 2353.78 303.125 2345.88 291.111C2338.14 279.097 2327.79 273.09 2314.83 273.09C2301.88 273.09 2291.53 279.097 2283.79 291.111C2275.89 303.125 2271.94 318.459 2271.94 337.112C2271.94 355.765 2275.89 371.178 2283.79 383.35C2291.53 395.206 2301.88 401.134 2314.83 401.134C2327.79 401.134 2338.14 395.127 2345.88 383.113C2353.78 370.941 2357.73 355.607 2357.73 337.112Z" fill="#757575"/>
<path d="M725.839 167.321L499.244 298.146C468.204 316.067 457.569 355.757 475.49 386.797C493.411 417.837 533.102 428.472 564.141 410.551L790.736 279.727C821.776 261.806 832.411 222.115 814.49 191.075C796.57 160.035 756.879 149.4 725.839 167.321Z" fill="#FCBC05"/>
<path d="M792.797 166.291L566.202 35.4665C535.162 17.5456 495.471 28.1806 477.55 59.2205C459.63 90.2604 470.265 129.951 501.304 147.872L727.899 278.697C758.939 296.617 798.63 285.982 816.551 254.942C834.472 223.903 823.837 184.212 792.797 166.291Z" fill="#0D9D58"/>
<path d="M58.2623 164.231L284.857 33.4062C315.897 15.4853 355.588 26.1204 373.509 57.1603C391.43 88.2002 380.795 127.891 349.755 145.812L123.16 276.636C92.1198 294.557 52.4292 283.922 34.5083 252.882C16.5874 221.842 27.2225 182.152 58.2623 164.231Z" fill="#EA4334"/>
<path d="M121.1 165.261L347.695 296.086C378.735 314.007 389.37 353.697 371.449 384.737C353.528 415.777 313.837 426.412 282.797 408.491L56.2025 277.666C25.1626 259.746 14.5275 220.055 32.4484 189.015C50.3693 157.975 90.0599 147.34 121.1 165.261Z" fill="#4285F4"/>
</svg>
