<?xml version="1.0" encoding="UTF-8" standalone="no"?>
<!DOCTYPE svg PUBLIC "-//W3C//DTD SVG 1.1//EN" "http://www.w3.org/Graphics/SVG/1.1/DTD/svg11.dtd">
<svg width="1000" height="600" viewBox="0 0 1775 967" version="1.1" xmlns="http://www.w3.org/2000/svg" xmlns:xlink="http://www.w3.org/1999/xlink" xml:space="preserve" xmlns:serif="http://www.serif.com/" style="fill-rule:evenodd;clip-rule:evenodd;stroke-linejoin:round;stroke-miterlimit:1.41421;">
    <g transform="matrix(4.16667,0,0,4.16667,0,0)">
        <path d="M344.254,52.242L288.667,112.968L345.114,173.695L377.298,173.695L321.711,112.968L377.298,52.242L344.254,52.242Z" style="fill:rgb(232,47,45);fill-rule:nonzero;"/>
        <path d="M216.919,117.521C215.395,136.846 199.738,152.503 180.413,154.027C155.848,155.964 135.501,135.617 137.437,111.051C138.961,91.727 154.617,76.07 173.943,74.546C198.509,72.609 218.856,92.956 216.919,117.521ZM181.2,52.499C143.834,50.138 113.029,80.943 115.391,118.308C117.338,149.123 142.342,174.127 173.157,176.074C210.522,178.435 241.326,147.63 238.966,110.265C237.019,79.45 212.015,54.446 181.2,52.499Z" style="fill:rgb(24,21,58);fill-rule:nonzero;"/>
        <path d="M154.06,0.869L0,0.869L0,24.368L63.234,24.368L63.234,173.695L89.768,173.695L89.768,24.368L154.06,24.368L154.06,0.869Z" style="fill:rgb(24,21,58);fill-rule:nonzero;"/>
        <path d="M410.807,29.536C414.768,29.536 418.155,28.129 420.973,25.312C423.788,22.496 425.197,19.152 425.197,15.278C425.197,11.318 423.788,7.975 420.973,5.245C418.155,2.519 414.768,1.154 410.807,1.154C407.111,1.154 403.854,2.585 401.039,5.444C398.221,8.305 396.814,11.582 396.814,15.278C396.814,19.064 398.221,22.387 401.039,25.245C403.854,28.106 407.111,29.536 410.807,29.536Z" style="fill:rgb(24,21,58);fill-rule:nonzero;"/>
        <rect x="398.926" y="52.242" width="24.027" height="121.453" style="fill:rgb(24,21,58);fill-rule:nonzero;"/>
        <rect x="264.622" y="1.134" width="24.027" height="172.561" style="fill:rgb(24,21,58);fill-rule:nonzero;"/>
        <path d="M13.964,223.633L10.472,215.555L7.011,223.633L13.964,223.633ZM8.886,211.314L12.175,211.314L21.061,231.653L17.31,231.653L15.262,226.778L5.712,226.778L3.635,231.653L0,231.653L8.886,211.314Z" style="fill:rgb(24,21,58);fill-rule:nonzero;"/>
        <path d="M36.79,221.613L36.79,221.556C36.79,215.901 41.118,211.112 47.205,211.112C50.725,211.112 52.889,212.093 54.966,213.853L52.715,216.535C51.158,215.209 49.628,214.372 47.061,214.372C43.339,214.372 40.512,217.632 40.512,221.498L40.512,221.556C40.512,225.711 43.253,228.769 47.378,228.769C49.283,228.769 51.014,228.163 52.254,227.24L52.254,223.46L47.09,223.46L47.09,220.373L55.687,220.373L55.687,228.855C53.697,230.557 50.841,232 47.263,232C40.945,232 36.79,227.499 36.79,221.613Z" style="fill:rgb(24,21,58);fill-rule:nonzero;"/>
        <path d="M74.734,211.458L89.708,211.458L89.708,214.632L78.282,214.632L78.282,219.882L88.409,219.882L88.409,223.056L78.282,223.056L78.282,228.48L89.852,228.48L89.852,231.653L74.734,231.653L74.734,211.458Z" style="fill:rgb(24,21,58);fill-rule:nonzero;"/>
        <path d="M108.495,211.458L111.784,211.458L122.603,225.421L122.603,211.458L126.094,211.458L126.094,231.653L123.122,231.653L111.986,217.285L111.986,231.653L108.495,231.653L108.495,211.458Z" style="fill:rgb(24,21,58);fill-rule:nonzero;"/>
        <path d="M144.823,221.613L144.823,221.556C144.823,215.814 149.122,211.112 155.238,211.112C158.96,211.112 161.21,212.41 163.144,214.256L160.864,216.882C159.248,215.382 157.517,214.372 155.209,214.372C151.372,214.372 148.545,217.546 148.545,221.498L148.545,221.556C148.545,225.508 151.344,228.711 155.209,228.711C157.69,228.711 159.277,227.73 161.009,226.114L163.288,228.422C161.182,230.615 158.874,232 155.094,232C149.208,232 144.823,227.413 144.823,221.613Z" style="fill:rgb(24,21,58);fill-rule:nonzero;"/>
        <path d="M181.44,211.458L196.414,211.458L196.414,214.632L184.989,214.632L184.989,219.882L195.115,219.882L195.115,223.056L184.989,223.056L184.989,228.48L196.558,228.48L196.558,231.653L181.44,231.653L181.44,211.458Z" style="fill:rgb(24,21,58);fill-rule:nonzero;"/>
        <path d="M238.284,211.458L242.064,211.458L248.209,221.007L254.354,211.458L258.133,211.458L258.133,231.653L254.584,231.653L254.584,217.17L248.209,226.691L248.093,226.691L241.775,217.228L241.775,231.653L238.284,231.653L238.284,211.458Z" style="fill:rgb(24,21,58);fill-rule:nonzero;"/>
        <path d="M294.26,221.613L294.26,221.556C294.26,217.632 291.403,214.372 287.394,214.372C283.384,214.372 280.585,217.575 280.585,221.498L280.585,221.556C280.585,225.479 283.441,228.711 287.451,228.711C291.461,228.711 294.26,225.537 294.26,221.613ZM276.863,221.613L276.863,221.556C276.863,215.872 281.248,211.112 287.451,211.112C293.654,211.112 297.982,215.814 297.982,221.498L297.982,221.556C297.982,227.24 293.596,232 287.394,232C281.191,232 276.863,227.297 276.863,221.613Z" style="fill:rgb(24,21,58);fill-rule:nonzero;"/>
        <path d="M325.828,222.969L320.202,222.969L320.202,228.508L326.087,228.508C328.511,228.508 329.983,227.557 329.983,225.739L329.983,225.682C329.983,223.979 328.627,222.969 325.828,222.969ZM328.857,217.17C328.857,215.583 327.587,214.603 325.308,214.603L320.202,214.603L320.202,219.969L325.049,219.969C327.328,219.969 328.857,219.075 328.857,217.228L328.857,217.17ZM316.711,211.458L325.77,211.458C328.078,211.458 329.895,212.093 331.05,213.247C331.944,214.141 332.406,215.238 332.406,216.593L332.406,216.651C332.406,219.075 331.021,220.373 329.521,221.152C331.886,221.96 333.531,223.315 333.531,226.056L333.531,226.114C333.531,229.721 330.559,231.653 326.058,231.653L316.711,231.653L316.711,211.458Z" style="fill:rgb(24,21,58);fill-rule:nonzero;"/>
        <rect x="352.173" y="211.458" width="3.549" height="20.195" style="fill:rgb(24,21,58);fill-rule:nonzero;"/>
        <path d="M375.546,211.458L379.094,211.458L379.094,228.422L389.711,228.422L389.711,231.653L375.546,231.653L375.546,211.458Z" style="fill:rgb(24,21,58);fill-rule:nonzero;"/>
        <path d="M407.834,211.458L422.807,211.458L422.807,214.632L411.382,214.632L411.382,219.882L421.509,219.882L421.509,223.056L411.382,223.056L411.382,228.48L422.952,228.48L422.952,231.653L407.834,231.653L407.834,211.458Z" style="fill:rgb(24,21,58);fill-rule:nonzero;"/>
    </g>
</svg>
